<?xml version="1.0" encoding="UTF-8"?>
<svg id="Vrstva_2_kopie" data-name="Vrstva 2 kopie" xmlns="http://www.w3.org/2000/svg" xmlns:xlink="http://www.w3.org/1999/xlink" viewBox="0 0 495.46 517.3">
  <defs>
    <style>
      .cls-1 {
        fill: url(#Nepojmenovaný_přechod_38-12);
      }

      .cls-2 {
        fill: url(#Nepojmenovaný_přechod_38-16);
      }

      .cls-3 {
        fill: url(#Nepojmenovaný_přechod_38-14);
      }

      .cls-4 {
        fill: url(#Nepojmenovaný_přechod_38-8);
      }

      .cls-5 {
        fill: url(#Nepojmenovaný_přechod_38-2);
      }

      .cls-6 {
        fill: url(#Nepojmenovaný_přechod_38-15);
      }

      .cls-7 {
        fill: url(#Nepojmenovaný_přechod_38-18);
      }

      .cls-8 {
        fill: url(#Nepojmenovaný_přechod_38);
      }

      .cls-9 {
        fill: url(#Nepojmenovaný_přechod_38-5);
      }

      .cls-10 {
        fill: url(#Nepojmenovaný_přechod_38-20);
      }

      .cls-11 {
        fill: url(#Nepojmenovaný_přechod_38-19);
      }

      .cls-12 {
        fill: url(#Nepojmenovaný_přechod_38-7);
      }

      .cls-13 {
        fill: url(#Nepojmenovaný_přechod_38-3);
      }

      .cls-14 {
        fill: url(#Nepojmenovaný_přechod_38-4);
      }

      .cls-15 {
        fill: url(#Nepojmenovaný_přechod_38-10);
      }

      .cls-16 {
        fill: url(#Nepojmenovaný_přechod_38-17);
      }

      .cls-17 {
        fill: url(#Nepojmenovaný_přechod_38-13);
      }

      .cls-18 {
        fill: url(#Nepojmenovaný_přechod_38-9);
      }

      .cls-19 {
        fill: url(#Nepojmenovaný_přechod_38-11);
      }

      .cls-20 {
        fill: url(#Nepojmenovaný_přechod_38-6);
      }
    </style>
    <linearGradient id="Nepojmenovaný_přechod_38" data-name="Nepojmenovaný přechod 38" x1="319.08" y1="86.17" x2="439.8" y2="295.26" gradientUnits="userSpaceOnUse">
      <stop offset="0" stop-color="gold"/>
      <stop offset="1" stop-color="#228b22"/>
    </linearGradient>
    <linearGradient id="Nepojmenovaný_přechod_38-2" data-name="Nepojmenovaný přechod 38" x1="303.88" y1="370.32" x2="317.23" y2="393.44" xlink:href="#Nepojmenovaný_přechod_38"/>
    <linearGradient id="Nepojmenovaný_přechod_38-3" data-name="Nepojmenovaný přechod 38" x1="319.53" y1="389.88" x2="340.8" y2="426.71" xlink:href="#Nepojmenovaný_přechod_38"/>
    <linearGradient id="Nepojmenovaný_přechod_38-4" data-name="Nepojmenovaný přechod 38" x1="197.4" y1="422.81" x2="219.55" y2="461.16" xlink:href="#Nepojmenovaný_přechod_38"/>
    <linearGradient id="Nepojmenovaný_přechod_38-5" data-name="Nepojmenovaný přechod 38" x1="188.81" y1="439.89" x2="220.04" y2="493.97" xlink:href="#Nepojmenovaný_přechod_38"/>
    <linearGradient id="Nepojmenovaný_přechod_38-6" data-name="Nepojmenovaný přechod 38" x1="114.21" y1="363.46" x2="152.51" y2="429.79" xlink:href="#Nepojmenovaný_přechod_38"/>
    <linearGradient id="Nepojmenovaný_přechod_38-7" data-name="Nepojmenovaný přechod 38" x1="144.43" y1="357.25" x2="179.13" y2="417.35" xlink:href="#Nepojmenovaný_přechod_38"/>
    <linearGradient id="Nepojmenovaný_přechod_38-8" data-name="Nepojmenovaný přechod 38" x1="327.13" y1="332.67" x2="339.8" y2="354.61" xlink:href="#Nepojmenovaný_přechod_38"/>
    <linearGradient id="Nepojmenovaný_přechod_38-9" data-name="Nepojmenovaný přechod 38" x1="359.36" y1="337.74" x2="370.19" y2="356.5" xlink:href="#Nepojmenovaný_přechod_38"/>
    <linearGradient id="Nepojmenovaný_přechod_38-10" data-name="Nepojmenovaný přechod 38" x1="332.5" y1="348.7" x2="350.22" y2="379.39" xlink:href="#Nepojmenovaný_přechod_38"/>
    <linearGradient id="Nepojmenovaný_přechod_38-11" data-name="Nepojmenovaný přechod 38" x1="281.84" y1="415.45" x2="292.92" y2="434.64" xlink:href="#Nepojmenovaný_přechod_38"/>
    <linearGradient id="Nepojmenovaný_přechod_38-12" data-name="Nepojmenovaný přechod 38" x1="295.04" y1="446.37" x2="308.7" y2="470.03" xlink:href="#Nepojmenovaný_přechod_38"/>
    <linearGradient id="Nepojmenovaný_přechod_38-13" data-name="Nepojmenovaný přechod 38" x1="243.53" y1="443.2" x2="259.52" y2="470.9" xlink:href="#Nepojmenovaný_přechod_38"/>
    <linearGradient id="Nepojmenovaný_přechod_38-14" data-name="Nepojmenovaný přechod 38" x1="147.46" y1="400.29" x2="186.38" y2="467.7" xlink:href="#Nepojmenovaný_přechod_38"/>
    <linearGradient id="Nepojmenovaný_přechod_38-15" data-name="Nepojmenovaný přechod 38" x1="130.76" y1="330.23" x2="155.79" y2="373.58" xlink:href="#Nepojmenovaný_přechod_38"/>
    <linearGradient id="Nepojmenovaný_přechod_38-16" data-name="Nepojmenovaný přechod 38" x1="208" y1="241.45" x2="253.27" y2="319.86" xlink:href="#Nepojmenovaný_přechod_38"/>
    <linearGradient id="Nepojmenovaný_přechod_38-17" data-name="Nepojmenovaný přechod 38" x1="53.32" y1="282.41" x2="69.54" y2="310.5" gradientTransform="translate(57.07 -6.04) rotate(10.9)" xlink:href="#Nepojmenovaný_přechod_38"/>
    <linearGradient id="Nepojmenovaný_přechod_38-18" data-name="Nepojmenovaný přechod 38" x1="50.88" y1="111.88" x2="69.68" y2="144.45" xlink:href="#Nepojmenovaný_přechod_38"/>
    <linearGradient id="Nepojmenovaný_přechod_38-19" data-name="Nepojmenovaný přechod 38" x1="235.6" y1="41.41" x2="315.58" y2="179.94" xlink:href="#Nepojmenovaný_přechod_38"/>
    <linearGradient id="Nepojmenovaný_přechod_38-20" data-name="Nepojmenovaný přechod 38" x1="85.95" y1="106.23" x2="198.44" y2="301.07" xlink:href="#Nepojmenovaný_přechod_38"/>
  </defs>
  <path class="cls-8" d="M459.31,119.8c-2.94-3.39-6.52-6.22-10.55-8.29,5.72-6.28,9.19-14.63,9.19-23.8,0-19.56-15.85-35.41-35.41-35.41h-44.79l5.46,14.54h39.33l.02.13c.76-.09,1.54-.13,2.32-.13,11.37,0,20.59,9.21,20.59,20.58s-9.22,20.59-20.59,20.59h-27.79l1.26,5.56,1.08,4.73h0s.66,2.92.66,2.92v1.3h32.94c11.54,0,20.9,9.36,20.9,20.9s-9.36,20.91-20.9,20.91h-93.73c-11.55,0-20.91-9.36-20.91-20.91,0-4.36,1.33-8.4,3.61-11.75l-6.37-9.15-2.21-3.18c-.8.9-1.55,1.84-2.25,2.83-4.11,5.79-6.53,12.86-6.53,20.5,0,8.25,2.82,15.84,7.55,21.86,2.8,3.57,6.28,6.59,10.24,8.86-8.04,5.94-13.24,15.48-13.24,26.25,0,12.13,6.62,22.71,16.44,28.33,1.87,1.08,3.86,1.97,5.94,2.66.12.04.24.07.35.11h-.46c-4.93,5.5-7.92,12.78-7.92,20.75,0,9.37,4.13,17.77,10.68,23.47,5,4.37,11.41,7.16,18.46,7.61.67.04,1.33.06,2.01.06h23.33c.04.12.06.23.09.35.11.54.17,1.1.17,1.67,0,3.8-2.6,7-6.12,7.89-.6.16-1.23.24-1.88.25h-17.66c-.31,0-.62,0-.93,0-6.13-.15-11.91-1.75-17-4.48-2.89-1.55-5.56-3.45-7.94-5.67-7.48-6.94-12.16-16.86-12.16-27.87,0-6.03,1.41-11.73,3.9-16.79l-9.3-7.23v82.48c0,8.6,6.72,15.62,15.19,16.1.31.02.62.03.93.03h51.1c.57,0,1.15-.03,1.7-.09,8.1-.85,14.42-7.7,14.42-16.04v-30.59h15c8.65,0,16.47-3.53,22.12-9.22,5.58-5.63,9.03-13.38,9.03-21.93,0-7.79-2.86-14.91-7.58-20.37,13.86-3.76,24.06-16.43,24.06-31.49,0-9.36-3.94-17.8-10.25-23.75,5.34-1.99,10.06-5.22,13.82-9.35,5.68-6.26,9.15-14.56,9.15-23.68s-3.23-16.88-8.59-23.06ZM409.02,269.21h-54.23c-9.78,0-17.71-7.94-17.71-17.72s7.93-17.72,17.71-17.72h54.23c9.78,0,17.72,7.94,17.72,17.72s-7.94,17.72-17.72,17.72ZM420.51,220.18h-76.66c-1.88,0-3.7-.24-5.43-.7-9.13-2.4-15.87-10.72-15.87-20.61s7.16-18.72,16.72-20.81h0c1.48-.32,3-.49,4.57-.49h76.66c11.77,0,21.31,9.53,21.31,21.3s-9.54,21.31-21.31,21.31Z"/>
  <path class="cls-5" d="M332.53,360c-.26-.03-.51-.06-.77-.08-10.05-.93-20.17,3.89-25.59,13.13l-.27.46-.13.23-.17.3-12.96,22.56-.1.18c-1.69,2.96-2.75,6.12-3.22,9.3,4.29-3.01,9.12-4.81,14.05-5.46.58-.08,1.16-.13,1.75-.18l.57-1,9.33-16.25,1.99-3.46.3-.53c1.95-3.14,4.96-5.26,8.29-6.16l7.58-12.95c-.22-.03-.44-.06-.66-.09Z"/>
  <path class="cls-13" d="M352.62,400.05l-13.43,23.37c-.24.42-.49.83-.76,1.24-1.41,2.17-3.08,4.08-4.95,5.71-1.19,1.03-2.45,1.94-3.78,2.73-2.93,1.74-6.15,2.92-9.49,3.46-5.7.93-11.72.04-17.16-2.94v-.02c-1.86-1.11-3.1-3.12-3.1-5.42,0-1.22.35-2.36.95-3.32h0c1.13-1.81,3.17-3.01,5.5-3.01.49,0,.96.05,1.42.15.46.1.89.25,1.3.44.16.09.32.17.49.24.15.09.31.16.47.22,2.25,1.03,4.66,1.41,7,1.21,4.46-.37,8.68-2.86,11.08-7.04l.03-.06.21-.36,1.8-3.13,1.3-2.25,8.04-14,2.05-3.56c1.88-3.27,2.31-6.97,1.48-10.36l8.4-11.9s.02.02.02.03c5.64,8.25,6.44,19.33,1.13,28.58Z"/>
  <path class="cls-14" d="M242.11,448.13l-12.12,2.02-3.26.54c-1.56-1.05-3.36-1.81-5.32-2.2l-.63-.1-4.07-.65-19.09-3.05-4.18-.67c-.91-.14-1.81-.2-2.7-.17-2.61.07-5.1.84-7.25,2.16l-2.75-3.22-5.83-6.83c5.71-4.12,12.97-6.08,20.46-4.92l.21.03,26.51,4.24.35.06.26.03.54.09c8.11,1.38,14.81,6.16,18.86,12.65Z"/>
  <path class="cls-9" d="M245.71,468.5c-3,14.39-16.82,24.02-31.48,21.68l-27.45-4.39c-15.02-2.39-25.28-16.42-23.04-31.42,1.91,3.34,5.12,6.81,9.27,9.72.29.2.59.41.89.6,2.06,1.37,4.17,2.47,6.23,3.27,2.16,2.51,5.19,4.3,8.72,4.87l.5.07.37.06,3.31.53,11.56,1.85,7.53,1.2,4.18.67c5.76.93,11.28-1.67,14.36-6.2l2.94-.49,12.11-2.02Z"/>
  <path class="cls-20" d="M146.4,433.32c-14.96.27-27.49-11.47-28.14-26.51l-1.2-27.77c-.49-11.41,5.97-21.5,15.64-26.17l.6,15.95c-2.09,2.65-3.27,6.02-3.12,9.66l.02.5.16,3.72.83,19.31.18,4.23c.14,3.35,1.41,6.39,3.42,8.76.45.54.94,1.04,1.47,1.51,0,1.15.09,2.33.28,3.53,0,.06.02.13.03.19,1.18,6.94,5.32,12.24,9.82,13.09Z"/>
  <path class="cls-12" d="M165.56,425.19l-5.46-6.8-1.92-2.38-.94-1.18c.46-.57.89-1.16,1.26-1.8.67-1.13,1.19-2.36,1.54-3.66.33-1.23.5-2.54.49-3.87l-.02-.64-.18-4.12-.82-19.31-.19-4.22c-.17-4.2-2.11-7.91-5.07-10.44l-.23-15.06c10.29,3.66,17.86,13.24,18.41,24.79l.02.21,1.15,26.82.02.35.02.27.02.54c.27,7.96-2.87,15.26-8.09,20.49Z"/>
  <path class="cls-4" d="M341.21,346.35l-2.79,4.8-1.28,2.19-2.45,4.22c-.86-.68-1.68-1.4-2.45-2.17-1.29-1.29-2.45-2.71-3.45-4.23-2.77-4.21-4.39-9.24-4.4-14.65v-2.25h12.73v2.13c0,2.3.53,4.47,1.51,6.39.68,1.33,1.55,2.53,2.58,3.58Z"/>
  <path class="cls-18" d="M378.12,334.25v2.17c0,5.44-1.63,10.5-4.41,14.73-4.45,6.77-11.89,11.41-20.44,12.04,2.25-2.24,7.37-5.93,8.03-12.04.09-.75.13-1.52.13-2.31,0-.85-.05-1.68-.15-2.48h0c2.54-2.56,4.11-6.08,4.11-9.96v-2.15h12.73Z"/>
  <path class="cls-15" d="M356.64,349.46h0c0,.11,0,.23,0,.35h0c0,1.2-.32,2.38-.92,3.41l-1.48,2.56-4.3,7.45h-.04s.02,0,.03,0l-2.21,3.84-6.71,11.63-1.49,2.59-2.46,4.25-.9,1.55h0c-1.17,1.42-3.01,2.24-5.04,1.95-2.29-.32-4.17-2.11-4.61-4.38-.26-1.35-.02-2.64.56-3.72l-.02-.02,4.73-8.2,6.57-11.38.61-1.07,3.39-5.87s.93-1.61,1.24-2.15c.11-.19.28-.62.44-.77.01-.01.02-.01.02-.02.06-.08.14-.25.19-.33.06-.11.2-.33.26-.45,0-.02,0-.03.02-.04,0,0,0,0,0,0,.06-.07.16-.23.18-.31.31-1.18,0-4.88,0-4.88l.02-.02s0-.07-.01-.1c-.14-2.04.69-4.06,2.45-5.11,4.65-2.78,9.48.52,9.48,4.94v4.28Z"/>
  <path class="cls-19" d="M321.39,414.31c0,3.72-3.01,6.74-6.74,6.74-.48,0-.95-.05-1.4-.14-.84-.49-1.71-.88-2.61-1.19-.91-.31-1.85-.53-2.8-.64h-.02c-.14-.02-.3-.04-.45-.05-.15-.02-.31-.03-.46-.04-.66-.05-1.31-.05-1.97,0-2.88.19-5.74,1.24-8.15,3.19l-.48.42-2.76,2.39-.35.31-14.61,12.66-3.2,2.77c-.79.68-1.48,1.43-2.08,2.22l-15.37,2.56c1.26-5.48,4.2-10.63,8.75-14.61l.16-.14,20.29-17.58.27-.23.2-.18.41-.35c.35-.29.7-.57,1.05-.85,3.98-3.07,8.57-4.9,13.27-5.51,4.6-.6,9.32-.04,13.67,1.66,0,0,.02,0,.02,0,.91.35,1.81.76,2.69,1.22,1.63,1.23,2.69,3.19,2.69,5.39Z"/>
  <path class="cls-1" d="M333.62,434.91c-.35,7.29-3.58,14.42-9.52,19.57l-21.01,18.2c-11.57,10.03-29.07,8.78-39.09-2.79-1.08-1.26-2.04-2.58-2.86-3.95l15.1-2.51c5.36,4.02,12.99,3.91,18.25-.67l.38-.33,2.82-2.44.18-.16,14.43-12.5,1.87-1.62,1.33-1.15c1.02-.89,1.89-1.88,2.6-2.95.31-.03.62-.08.93-.13,5.31-.87,10.36-3.11,14.6-6.57Z"/>
  <path class="cls-17" d="M286.13,452.25c0,2.73-1.97,5.15-4.76,5.61l-5.9.98-2.98.49-13.47,2.24-12.73,2.12-1.33.22h0l-12.11,2.02-9.3,1.55c-3.09.51-6.02-1.58-6.54-4.68-.05-.31-.08-.64-.08-.94,0-2.73,1.97-5.14,4.76-5.61l5.81-.97,3.26-.54,13.57-2.25,12.95-2.15,13.57-2.25,3.24-.54,5.43-.9c3.1-.52,6.03,1.58,6.55,4.68.05.31.08.63.08.93Z"/>
  <path class="cls-3" d="M197.79,457.28c0,1.63-.68,3.13-1.84,4.4-2.05,2.24-5.63,3.72-9.7,3.72-2.28,0-4.42-.47-6.21-1.28-1.09-.26-2.11-.84-2.91-1.74l-.27-.31-5.71-6.41-6.01-6.74-2.96-3.31-.12-.13-8.59-9.63-2.62-2.94-.16-.19-6.29-7.05-1.11-1.24.05-.08c-1.27-1.41-2.28-3.2-2.9-5.23-.06-.2-.12-.4-.17-.6-.09-.31-.16-.64-.23-.96-.04-.17-.08-.34-.1-.51,0-.06-.02-.12-.03-.18-.02-.12-.04-.24-.05-.36-.02-.15-.05-.31-.06-.46-.08-.67-.12-1.35-.12-2.04,0-1.55.2-3.05.57-4.44.37-1.41.76-2.98,1.3-4.03s1.57-2.66,2.96-3.51c.65-.42,1.09-.66,2.17-.86.37-.07.75-.11,1.15-.11,3.41,0,7.19,2.91,5.74,6.29-.22.52-2.34,3.61-2.28,6.75-.02,2.1,1.41,3.34,1.78,4,.22.39.5.75.8,1.08l2.36,2.66,1.48,1.65,4.18,4.69.07.08,8.66,9.72.85.95,2.93,3.29,5.38,6.03.46.53,1.07,1.19.09.09.09.1.35.4s.09.09.13.14c.97.93,2.21,1.48,3.59,1.48.6,0,1.19-.11,1.73-.31.4-.14.79-.35,1.15-.59t.02,0c.24-.17.48-.36.7-.59.33-.31.63-.67.88-1.07,4.54,1.09,7.79,4.11,7.79,7.67Z"/>
  <path class="cls-6" d="M149.38,330.05v43.7c0,3.38-2.73,6.11-6.11,6.11s-6.1-2.73-6.1-6.11v-43.7c0-3.38,2.73-6.11,6.1-6.11,1.69,0,3.22.68,4.32,1.79,1.11,1.11,1.79,2.63,1.79,4.32Z"/>
  <path class="cls-2" d="M302.25,277.76v13.83h-44.04c-18.5-2.08-36.07-5.62-55.82-12.36-4.37-1.05-8.15-.79-10.87-.52-.8.08-1.52.16-2.12.21h-.02l-3.09.6-7.29,1.41-19.34,3.74-2.67-13.78,24.6-4.76h0l2.28-.44c.95-.1,1.88-.2,2.76-.28,2.52-.24,4.81-.43,7.03-.52,3.09-.13,6.02-.07,9.14.27,3.53.38,8.75,1.82,14.79,3.6,12.44,3.66,28.43,8.75,40.61,8.99h44.04Z"/>
  <path class="cls-16" d="M34.1,289.36h58.92v13.53h-58.92c-3.73,0-6.76-3.03-6.76-6.76h0c0-3.73,3.03-6.76,6.76-6.76Z" transform="translate(-54.9 16.72) rotate(-10.9)"/>
  <path class="cls-7" d="M87.48,134.18l-52.87,1.81c-3.72.17-6.88-2.71-7.05-6.44h0c-.17-3.73,2.71-6.88,6.44-7.05l55.94-2.53-2.46,14.21Z"/>
  <path class="cls-11" d="M391.31,121.11c0,7.32-2.72,13.87-7.02,18.27-1.52,1.55-3.22,2.83-5.07,3.78-.34.16-.68.33-1.02.48-18.25,8.45-40.18,1.46-50.07-16.42l-10.53-19.07c-1.14-2.06-2.06-4.17-2.79-6.31h-11.27c-1.09,33.93-16.6,63.58-39.59,80.9-10.54,7.93-22.65,13.28-35.67,15.26h-.02s-.02,0-.03,0l-9.34.71c-3.79.29-7.11-2.54-7.4-6.34-.02-.18-.02-.35-.02-.53,0-3.56,2.76-6.58,6.37-6.86l2.05-.16h.02c.65.02,1.3.04,1.95.04,3.34,0,6.63-.32,9.84-.94h.02s.02,0,.02,0c33-6.34,58.36-44.04,58.51-89.67,0-3.63,2.94-6.56,6.56-6.56h26.07c1.75,0,3.2,1.33,3.37,3.03h.03c.84,6.38,3.28,13.35,7.32,20.03,5.26,8.7,12.22,15.22,19.18,18.7,6.73,3.36,13.45,3.87,18.63.74,3.19-1.92,5.43-5.01,6.7-8.86l-8.27-24.11-7.18-20.97h0s-2.06-6.03-2.06-6.03l-5.27-15.36-.05.02c-.45-1.42-1.04-2.79-1.79-4.06-3.47-6.05-10-10.11-17.48-10.11h-68.35c-4.34,0-8.33,1.63-11.46,4.37,0,0-.02,0-.02.02l-2.8,3.05s-.02,0-.02.02l-11.2,12.22-48.47,52.92-1.15,1.26s-.07.07-.1.1c-3.91,3.92-10.26,7.63-17.88,10.07-1.32.42-2.62.79-3.92,1.11-4.44,1.09-8.68,1.56-12.39,1.46-.66-.02-1.3-.05-1.92-.11l.9-3.58,2.49-9.92c3.2-.26,6.64-.93,10.14-2.05,5.61-1.8,10.43-4.44,13.9-7.38,1.69-1.42,3.05-2.91,4.05-4.41,0,0,0,0,0-.02v-.02l.42-.45,53.75-58.67.45-.49s.02-.02.02-.02l4.17-4.55c5.28-4.55,12.94-7.72,21.67-8.61,1.52-.16,3.07-.25,4.66-.26.15,0,.3,0,.45,0h61.62c5.01.03,10.4,1.23,15.61,3.72,8.46,4.04,14.59,10.6,17.23,17.49l.53,1.54c.02.07.05.15.07.22h0s2.06,6.02,2.06,6.02l.57,1.64,18.24,53.23s.02,0,0,.02l.89,2.58s.02.03.02.05c.71,2.46,1.09,5.09,1.09,7.84Z"/>
  <path class="cls-10" d="M184.99,289.23c-3.2,17.13-10.48,29.09-18.94,29.09-.14,0-.28,0-.42-.02h-.11l-8.77.24-34.68.91v-.18c-8.32.09-16-12.04-21.78-31.88-6.11-20.97-10.09-50.54-10.44-83.35-.44-40.38,4.73-75.97,12.91-96.73,4.28-10.85,9.38-17.63,14.94-18.93l3.45-.09,9.44-.24,23.03-.6,6.7-.17h.02c.31-.05.61-.07.93-.08,1.09-.03,2.17.14,3.25.52h0c3.84,1.32,7.55,5.11,10.99,10.95l-1.88,1.08h0l-6.95,3.99c-.46-.64-.93-1.2-1.41-1.69-1.24-1.29-2.5-2.07-3.78-2.33-.35-.08-.69-.11-1.04-.1-2.31.05-4.49,1.88-6.48,5.18-.24.38-.46.79-.69,1.2-.53.99-1.04,2.08-1.55,3.27h0c-.49,1.18-.97,2.44-1.43,3.81-1.09,3.2-2.1,6.91-3.01,11.07-.78,3.53-1.48,7.38-2.12,11.51v.02c-.74,4.83-1.37,10.05-1.9,15.59-1.45,15.27-2.05,33-1.55,51.89.5,19.42,2.1,37.56,4.45,53.01h0c.47,3.1.97,6.08,1.51,8.95,1.47,7.98,3.15,15.03,4.99,20.92,3.84,12.29,8.36,19.53,13.05,19.54h.13c3.96-.1,7.52-5.35,10.47-14.41l8.69-1.92Z"/>
</svg>